# xmcd
#
# Track frame offsets:
#  150
#  19574
#  35273
#  52285
#  83295
#  104183
#  121952
#  149117
#  165085
#
# Disc length: 2373 seconds
#
# Revision: 0
# Processed by: cddbd v1.5.1PL2 Copyright (c) Steve Scherf et al.
# Submitted via: Collectorz.com_Music_Collector 6.11
#
DISCID=71094309
DTITLE=R. L. Burnside - Mr. Wizard
DYEAR=1997
DGENRE=Blues
TTITLE0=Over The Hill
TTITLE1=Alice Mae
TTITLE2=Georgia Women
TTITLE3=Snake Drive
TTITLE4=Rollin' and Tumblin'
TTITLE5=Out On The Road
TTITLE6=Highway 7
TTITLE7=Tribute To Fred
TTITLE8=You Gotta Move
EXTD=
EXTT0=
EXTT1=
EXTT2=
EXTT3=
EXTT4=
EXTT5=
EXTT6=
EXTT7=
EXTT8=
PLAYORDER=
